<svg xmlns="http://www.w3.org/2000/svg" xmlns:xlink="http://www.w3.org/1999/xlink" width="93.05859375" height="98.05078125"><path fill="white" stroke="black" d="M48.45 25.56L48.45 76.96L39.80 76.96L13.18 34.84L12.90 34.84Q13.01 36.74 13.15 39.01Q13.29 41.27 13.38 43.75Q13.46 46.23 13.50 48.76L13.50 48.76L13.50 76.96L6.89 76.96L6.89 25.56L15.47 25.56L41.98 67.46L42.22 67.46Q42.15 65.92 42.05 63.63Q41.94 61.35 41.85 58.80Q41.77 56.25 41.77 53.96L41.77 53.96L41.77 25.56L48.45 25.56ZM69.36 55.34L69.36 76.96L62.19 76.96L62.19 25.56L91.02 25.56L91.02 31.75L69.36 31.75L69.36 49.18L89.68 49.18L89.68 55.34L69.36 55.34Z"></path></svg>